<mxfile host="app.diagrams.net" modified="2021-10-16T07:35:14.354Z" agent="5.0 (Windows NT 10.0; Win64; x64) AppleWebKit/537.36 (KHTML, like Gecko) Chrome/94.0.4606.81 Safari/537.36" etag="hRwtE-9bJ94GRc2-kR5r" version="15.5.1" type="github">
  <diagram id="2YDtvbEqmmr2WRJqGNYT" name="Page-1">
    <mxGraphModel dx="2385" dy="1617" grid="0" gridSize="10" guides="1" tooltips="1" connect="1" arrows="1" fold="1" page="0" pageScale="1" pageWidth="850" pageHeight="1100" math="0" shadow="0">
      <root>
        <mxCell id="0" />
        <mxCell id="1" parent="0" />
        <mxCell id="eWI_-dGI4IAz-TgmicA4-3" value="" style="edgeStyle=orthogonalEdgeStyle;rounded=0;orthogonalLoop=1;jettySize=auto;html=1;exitX=1;exitY=0.3333333333333333;exitDx=0;exitDy=0;exitPerimeter=0;" parent="1" source="eWI_-dGI4IAz-TgmicA4-1" edge="1">
          <mxGeometry relative="1" as="geometry">
            <mxPoint x="240" y="477" as="targetPoint" />
            <Array as="points">
              <mxPoint x="90" y="477" />
            </Array>
          </mxGeometry>
        </mxCell>
        <mxCell id="eWI_-dGI4IAz-TgmicA4-1" value="Người Bán Hàng" style="shape=umlActor;verticalLabelPosition=bottom;verticalAlign=top;html=1;outlineConnect=0;fontFamily=Times New Roman;fontSize=16;" parent="1" vertex="1">
          <mxGeometry x="38" y="450" width="50" height="80" as="geometry" />
        </mxCell>
        <mxCell id="eWI_-dGI4IAz-TgmicA4-5" value="" style="strokeWidth=2;html=1;shape=mxgraph.flowchart.annotation_1;align=left;pointerEvents=1;fontFamily=Times New Roman;fontSize=16;" parent="1" vertex="1">
          <mxGeometry x="243" y="-10" width="320" height="970" as="geometry" />
        </mxCell>
        <mxCell id="eWI_-dGI4IAz-TgmicA4-8" value="Đăng nhập/ Đăng xuất" style="ellipse;whiteSpace=wrap;html=1;fontFamily=Times New Roman;fontSize=16;" parent="1" vertex="1">
          <mxGeometry x="280" width="240" height="50" as="geometry" />
        </mxCell>
        <mxCell id="eWI_-dGI4IAz-TgmicA4-9" value="Đổi mật khẩu/Quên mật khẩu" style="ellipse;whiteSpace=wrap;html=1;fontFamily=Times New Roman;fontSize=16;" parent="1" vertex="1">
          <mxGeometry x="280" y="100" width="240" height="50" as="geometry" />
        </mxCell>
        <mxCell id="eWI_-dGI4IAz-TgmicA4-10" value="Xem sản phẩm theo danh mục" style="ellipse;whiteSpace=wrap;html=1;fontFamily=Times New Roman;fontSize=16;" parent="1" vertex="1">
          <mxGeometry x="280" y="200" width="240" height="50" as="geometry" />
        </mxCell>
        <mxCell id="eWI_-dGI4IAz-TgmicA4-11" value="Xem danh mục" style="ellipse;whiteSpace=wrap;html=1;fontFamily=Times New Roman;fontSize=16;" parent="1" vertex="1">
          <mxGeometry x="280" y="150" width="240" height="50" as="geometry" />
        </mxCell>
        <mxCell id="eWI_-dGI4IAz-TgmicA4-14" value="Bình luận/ Đánh giá sản phẩm" style="ellipse;whiteSpace=wrap;html=1;fontFamily=Times New Roman;fontSize=16;" parent="1" vertex="1">
          <mxGeometry x="280" y="250" width="240" height="50" as="geometry" />
        </mxCell>
        <mxCell id="eWI_-dGI4IAz-TgmicA4-15" value="Tìm kiếm sản phẩm" style="ellipse;whiteSpace=wrap;html=1;fontFamily=Times New Roman;fontSize=16;" parent="1" vertex="1">
          <mxGeometry x="280" y="350" width="240" height="50" as="geometry" />
        </mxCell>
        <mxCell id="eWI_-dGI4IAz-TgmicA4-16" value="Lọc sản phẩm" style="ellipse;whiteSpace=wrap;html=1;fontFamily=Times New Roman;fontSize=16;" parent="1" vertex="1">
          <mxGeometry x="280" y="400" width="240" height="50" as="geometry" />
        </mxCell>
        <mxCell id="eWI_-dGI4IAz-TgmicA4-23" value="Xem danh sách đơn đặt hàng" style="ellipse;whiteSpace=wrap;html=1;fontFamily=Times New Roman;fontSize=16;" parent="1" vertex="1">
          <mxGeometry x="283" y="550" width="240" height="50" as="geometry" />
        </mxCell>
        <mxCell id="eWI_-dGI4IAz-TgmicA4-25" value="Quản lý mã khuyến mãi" style="ellipse;whiteSpace=wrap;html=1;fontFamily=Times New Roman;fontSize=16;" parent="1" vertex="1">
          <mxGeometry x="283" y="700" width="240" height="50" as="geometry" />
        </mxCell>
        <mxCell id="eWI_-dGI4IAz-TgmicA4-26" value="Thống kê sản phẩm bán chạy" style="ellipse;whiteSpace=wrap;html=1;fontFamily=Times New Roman;fontSize=16;" parent="1" vertex="1">
          <mxGeometry x="280" y="750" width="240" height="50" as="geometry" />
        </mxCell>
        <mxCell id="eWI_-dGI4IAz-TgmicA4-27" value="Xác nhận trạng thái đơn hàng" style="ellipse;whiteSpace=wrap;html=1;fontFamily=Times New Roman;fontSize=16;" parent="1" vertex="1">
          <mxGeometry x="280" y="600" width="240" height="50" as="geometry" />
        </mxCell>
        <mxCell id="eWI_-dGI4IAz-TgmicA4-28" value="Thống kê doanh thu" style="ellipse;whiteSpace=wrap;html=1;fontFamily=Times New Roman;fontSize=16;" parent="1" vertex="1">
          <mxGeometry x="280" y="650" width="240" height="50" as="geometry" />
        </mxCell>
        <mxCell id="eWI_-dGI4IAz-TgmicA4-29" value="Thống kê danh sách đơn hàng&lt;br&gt;theo ngày, tháng, năm" style="ellipse;whiteSpace=wrap;html=1;fontFamily=Times New Roman;fontSize=16;" parent="1" vertex="1">
          <mxGeometry x="280" y="800" width="240" height="50" as="geometry" />
        </mxCell>
        <mxCell id="eWI_-dGI4IAz-TgmicA4-30" value="So sánh doanh thu" style="ellipse;whiteSpace=wrap;html=1;fontFamily=Times New Roman;fontSize=16;" parent="1" vertex="1">
          <mxGeometry x="280" y="850" width="240" height="50" as="geometry" />
        </mxCell>
        <mxCell id="eWI_-dGI4IAz-TgmicA4-31" value="Báo cáo vi phạm" style="ellipse;whiteSpace=wrap;html=1;fontFamily=Times New Roman;fontSize=16;" parent="1" vertex="1">
          <mxGeometry x="280" y="900" width="240" height="50" as="geometry" />
        </mxCell>
        <mxCell id="CH3Bwqs0S2gNGxrHbtev-1" value="Đăng ký" style="ellipse;whiteSpace=wrap;html=1;fontFamily=Times New Roman;fontSize=16;" parent="1" vertex="1">
          <mxGeometry x="280" y="50" width="240" height="50" as="geometry" />
        </mxCell>
        <mxCell id="CH3Bwqs0S2gNGxrHbtev-2" value="Xem thông tin cửa hàng" style="ellipse;whiteSpace=wrap;html=1;fontFamily=Times New Roman;fontSize=16;" parent="1" vertex="1">
          <mxGeometry x="280" y="450" width="240" height="50" as="geometry" />
        </mxCell>
        <mxCell id="CH3Bwqs0S2gNGxrHbtev-3" value="Quản lý cửa hàng" style="ellipse;whiteSpace=wrap;html=1;fontFamily=Times New Roman;fontSize=16;" parent="1" vertex="1">
          <mxGeometry x="280" y="300" width="240" height="50" as="geometry" />
        </mxCell>
        <mxCell id="CH3Bwqs0S2gNGxrHbtev-11" style="edgeStyle=orthogonalEdgeStyle;rounded=0;orthogonalLoop=1;jettySize=auto;html=1;fontFamily=Times New Roman;fontSize=16;exitX=1;exitY=0.5;exitDx=0;exitDy=0;exitPerimeter=0;" parent="1" source="CH3Bwqs0S2gNGxrHbtev-4" edge="1">
          <mxGeometry relative="1" as="geometry">
            <mxPoint x="609.630859375" y="525" as="targetPoint" />
          </mxGeometry>
        </mxCell>
        <mxCell id="CH3Bwqs0S2gNGxrHbtev-4" value="Quản lý sản phẩm" style="ellipse;whiteSpace=wrap;html=1;fontFamily=Times New Roman;fontSize=16;" parent="1" vertex="1">
          <mxGeometry x="280" y="500" width="240" height="50" as="geometry" />
        </mxCell>
        <mxCell id="DQKqlvUAjaJzxWeukWd4-1" value="Thêm sản phẩm" style="ellipse;whiteSpace=wrap;html=1;fontFamily=Times New Roman;fontSize=16;" parent="1" vertex="1">
          <mxGeometry x="640" y="450" width="240" height="50" as="geometry" />
        </mxCell>
        <mxCell id="DQKqlvUAjaJzxWeukWd4-2" value="Sửa sản phẩm" style="ellipse;whiteSpace=wrap;html=1;fontFamily=Times New Roman;fontSize=16;" parent="1" vertex="1">
          <mxGeometry x="640" y="500" width="240" height="50" as="geometry" />
        </mxCell>
        <mxCell id="DQKqlvUAjaJzxWeukWd4-3" value="Xóa sản phẩm" style="ellipse;whiteSpace=wrap;html=1;fontFamily=Times New Roman;fontSize=16;" parent="1" vertex="1">
          <mxGeometry x="640" y="550" width="240" height="50" as="geometry" />
        </mxCell>
        <mxCell id="DQKqlvUAjaJzxWeukWd4-4" value="Tạo cửa hàng" style="ellipse;whiteSpace=wrap;html=1;fontFamily=Times New Roman;fontSize=16;" parent="1" vertex="1">
          <mxGeometry x="640" y="281" width="240" height="50" as="geometry" />
        </mxCell>
        <mxCell id="DQKqlvUAjaJzxWeukWd4-5" value="Sửa thông tin cửa hàng" style="ellipse;whiteSpace=wrap;html=1;fontFamily=Times New Roman;fontSize=16;" parent="1" vertex="1">
          <mxGeometry x="640" y="331" width="240" height="50" as="geometry" />
        </mxCell>
        <mxCell id="DQKqlvUAjaJzxWeukWd4-10" value="Thêm mã khuyến mãi" style="ellipse;whiteSpace=wrap;html=1;fontFamily=Times New Roman;fontSize=16;" parent="1" vertex="1">
          <mxGeometry x="640" y="650" width="240" height="50" as="geometry" />
        </mxCell>
        <mxCell id="DQKqlvUAjaJzxWeukWd4-11" value="Sửa mã khuyến mãi" style="ellipse;whiteSpace=wrap;html=1;fontFamily=Times New Roman;fontSize=16;" parent="1" vertex="1">
          <mxGeometry x="640" y="700" width="240" height="50" as="geometry" />
        </mxCell>
        <mxCell id="DQKqlvUAjaJzxWeukWd4-12" value="Xóa mã khuyến mãi" style="ellipse;whiteSpace=wrap;html=1;fontFamily=Times New Roman;fontSize=16;" parent="1" vertex="1">
          <mxGeometry x="640" y="750" width="240" height="50" as="geometry" />
        </mxCell>
        <mxCell id="DQKqlvUAjaJzxWeukWd4-13" style="edgeStyle=orthogonalEdgeStyle;rounded=0;orthogonalLoop=1;jettySize=auto;html=1;fontFamily=Times New Roman;fontSize=16;exitX=1;exitY=0.5;exitDx=0;exitDy=0;exitPerimeter=0;" parent="1" edge="1">
          <mxGeometry relative="1" as="geometry">
            <mxPoint x="609.630859375" y="324.5" as="targetPoint" />
            <mxPoint x="520" y="324.5" as="sourcePoint" />
          </mxGeometry>
        </mxCell>
        <mxCell id="DQKqlvUAjaJzxWeukWd4-15" style="edgeStyle=orthogonalEdgeStyle;rounded=0;orthogonalLoop=1;jettySize=auto;html=1;fontFamily=Times New Roman;fontSize=16;exitX=1;exitY=0.5;exitDx=0;exitDy=0;exitPerimeter=0;" parent="1" edge="1">
          <mxGeometry relative="1" as="geometry">
            <mxPoint x="612.630859375" y="724.5" as="targetPoint" />
            <mxPoint x="523" y="724.5" as="sourcePoint" />
            <Array as="points">
              <mxPoint x="540" y="725" />
              <mxPoint x="540" y="725" />
            </Array>
          </mxGeometry>
        </mxCell>
        <mxCell id="DQKqlvUAjaJzxWeukWd4-16" value="" style="shape=curlyBracket;whiteSpace=wrap;html=1;rounded=1;" parent="1" vertex="1">
          <mxGeometry x="610" y="650" width="20" height="150" as="geometry" />
        </mxCell>
        <mxCell id="DQKqlvUAjaJzxWeukWd4-17" value="" style="shape=curlyBracket;whiteSpace=wrap;html=1;rounded=1;" parent="1" vertex="1">
          <mxGeometry x="610" y="450" width="20" height="150" as="geometry" />
        </mxCell>
        <mxCell id="DQKqlvUAjaJzxWeukWd4-18" value="" style="shape=curlyBracket;whiteSpace=wrap;html=1;rounded=1;" parent="1" vertex="1">
          <mxGeometry x="610" y="250" width="20" height="150" as="geometry" />
        </mxCell>
      </root>
    </mxGraphModel>
  </diagram>
</mxfile>
